<svg width="375" height="812" viewBox="0 0 375 812" fill="none" xmlns="http://www.w3.org/2000/svg">
<rect width="375" height="812" fill="white"/>
<path d="M375 0H0V812H375V0Z" fill="#7BED9F"/>
<g style="mix-blend-mode:multiply">
<path d="M375 0H0V210.22C21.2545 197.906 48.7958 188.5 81.5 188.5C124.095 188.5 134.953 203.473 146.934 219.994C161.677 240.325 178.121 263 257.5 263C300.372 263 340.23 246.574 375 222.671V0Z" fill="#7BED9F" fill-opacity="0.35"/>
</g>
<g clip-path="url(#clip0)">
<path d="M163.531 225.589H162.325V192.556C162.325 190.045 161.831 187.559 160.87 185.24C159.909 182.92 158.5 180.812 156.725 179.037C154.949 177.262 152.841 175.854 150.521 174.893C148.201 173.932 145.715 173.437 143.204 173.438H73.2077C70.6966 173.437 68.21 173.932 65.8901 174.893C63.5701 175.854 61.4622 177.262 59.6866 179.037C57.9109 180.812 56.5024 182.92 55.5415 185.24C54.5805 187.559 54.0859 190.045 54.0859 192.556V373.776C54.0859 376.286 54.5805 378.772 55.5415 381.092C56.5024 383.411 57.9109 385.519 59.6866 387.294C61.4622 389.07 63.5701 390.478 65.8901 391.439C68.21 392.399 70.6966 392.894 73.2077 392.894H143.204C145.715 392.894 148.201 392.399 150.521 391.439C152.841 390.478 154.949 389.07 156.725 387.294C158.5 385.519 159.909 383.411 160.87 381.092C161.831 378.772 162.325 376.286 162.325 373.776V249.102H163.531V225.589Z" fill="#084C61"/>
<path d="M143.975 178.412H134.838C135.259 179.442 135.419 180.559 135.306 181.666C135.192 182.772 134.808 183.834 134.188 184.757C133.567 185.68 132.729 186.437 131.747 186.96C130.765 187.483 129.67 187.757 128.557 187.757H88.4573C87.3448 187.757 86.2493 187.483 85.2675 186.96C84.2856 186.437 83.4475 185.68 82.8269 184.757C82.2064 183.834 81.8224 182.772 81.7089 181.666C81.5954 180.559 81.7558 179.442 82.1759 178.412H73.6422C71.7669 178.412 69.91 178.781 68.1775 179.498C66.445 180.216 64.8708 181.268 63.5448 182.593C62.2188 183.919 61.1669 185.493 60.4493 187.225C59.7317 188.957 59.3623 190.814 59.3623 192.689V373.643C59.3623 375.518 59.7317 377.374 60.4493 379.106C61.1669 380.839 62.2188 382.413 63.5448 383.738C64.8708 385.064 66.445 386.116 68.1775 386.833C69.91 387.551 71.7669 387.92 73.6422 387.92H143.975C145.851 387.92 147.707 387.551 149.44 386.833C151.172 386.116 152.747 385.064 154.073 383.738C155.399 382.413 156.451 380.839 157.168 379.106C157.886 377.374 158.255 375.518 158.255 373.643V192.689C158.255 190.814 157.886 188.957 157.168 187.225C156.451 185.493 155.399 183.919 154.073 182.593C152.747 181.268 151.172 180.216 149.44 179.498C147.707 178.781 145.851 178.412 143.975 178.412V178.412Z" fill="#79B791"/>
<path d="M88.0872 215.197H83.8878C83.7401 215.197 83.5985 215.256 83.4941 215.36C83.3897 215.465 83.3311 215.606 83.3311 215.754V217.597C83.3311 217.744 83.3897 217.886 83.4941 217.99C83.5985 218.095 83.7401 218.153 83.8878 218.153H84.5837V220.915H87.3913V218.153H88.0872C88.2348 218.153 88.3765 218.095 88.4809 217.99C88.5853 217.886 88.6439 217.744 88.6439 217.597V215.754C88.6439 215.606 88.5853 215.465 88.4809 215.36C88.3765 215.256 88.2348 215.197 88.0872 215.197V215.197Z" fill="#E6E6E6"/>
<path d="M92.2938 232.064C89.722 228.301 88.4072 223.821 88.5378 219.266C88.5402 219.161 88.5061 219.058 88.4413 218.975C88.3765 218.892 88.285 218.835 88.1824 218.811V218.015H83.7473V218.8H83.6862C83.5655 218.801 83.4498 218.849 83.3646 218.934C83.2794 219.02 83.2316 219.135 83.2317 219.256C83.2317 219.267 83.2322 219.278 83.233 219.289C83.5824 224.159 82.4025 228.526 79.6934 232.39C79.5375 232.613 79.4579 232.879 79.4664 233.15L79.9514 248.149C79.9631 248.483 80.1035 248.8 80.3434 249.034C80.5833 249.267 80.9041 249.399 81.2389 249.402H91.2704C91.609 249.399 91.9332 249.264 92.1738 249.026C92.4145 248.788 92.5526 248.465 92.5587 248.127L92.7456 233.564C92.7511 233.03 92.5935 232.506 92.2938 232.064Z" fill="#ECCC68"/>
<path d="M90.7053 237.046H81.9736C81.8444 237.046 81.7166 237.074 81.5992 237.128C81.4818 237.182 81.3774 237.261 81.2932 237.359C81.2091 237.457 81.1471 237.572 81.1116 237.696C81.0761 237.82 81.0679 237.951 81.0876 238.078L82.4071 246.654H89.9837L91.5864 238.107C91.6107 237.978 91.6061 237.845 91.573 237.717C91.54 237.59 91.4792 237.471 91.3951 237.37C91.311 237.268 91.2056 237.187 91.0863 237.131C90.9671 237.075 90.837 237.046 90.7053 237.046V237.046Z" fill="white"/>
<path d="M134.834 260.127H130.635C130.487 260.127 130.346 260.186 130.241 260.29C130.137 260.395 130.078 260.536 130.078 260.684V262.527C130.078 262.675 130.137 262.816 130.241 262.921C130.346 263.025 130.487 263.084 130.635 263.084H131.331V265.845H134.138V263.084H134.834C134.982 263.084 135.124 263.025 135.228 262.921C135.332 262.816 135.391 262.675 135.391 262.527V260.684C135.391 260.536 135.332 260.395 135.228 260.29C135.124 260.186 134.982 260.127 134.834 260.127Z" fill="#E6E6E6"/>
<path d="M139.041 276.994C136.469 273.231 135.154 268.751 135.285 264.195C135.287 264.09 135.253 263.988 135.188 263.905C135.124 263.822 135.032 263.764 134.929 263.741V262.945H130.494V263.73H130.433C130.374 263.73 130.314 263.742 130.259 263.765C130.204 263.788 130.154 263.821 130.112 263.864C130.069 263.906 130.036 263.956 130.013 264.012C129.99 264.067 129.979 264.126 129.979 264.186C129.979 264.197 129.979 264.208 129.98 264.219C130.329 269.089 129.15 273.456 126.44 277.32C126.285 277.542 126.205 277.809 126.214 278.08L126.698 293.079C126.71 293.413 126.851 293.73 127.09 293.964C127.33 294.197 127.651 294.329 127.986 294.332H138.017C138.356 294.329 138.68 294.194 138.921 293.956C139.162 293.718 139.3 293.395 139.306 293.056L139.493 278.494C139.498 277.96 139.341 277.436 139.041 276.994V276.994Z" fill="#ECCC68"/>
<path d="M137.452 281.976H128.721C128.591 281.976 128.464 282.004 128.346 282.058C128.229 282.111 128.124 282.19 128.04 282.288C127.956 282.386 127.894 282.501 127.859 282.626C127.823 282.75 127.815 282.88 127.835 283.008L129.154 291.583H136.731L138.333 283.037C138.358 282.908 138.353 282.774 138.32 282.647C138.287 282.519 138.226 282.401 138.142 282.299C138.058 282.198 137.953 282.117 137.833 282.061C137.714 282.005 137.584 281.976 137.452 281.976H137.452Z" fill="white"/>
<path d="M82.1838 323.645H80.1918C80.1218 323.645 80.0546 323.673 80.0051 323.722C79.9556 323.772 79.9277 323.839 79.9277 323.909V324.783C79.9277 324.853 79.9556 324.92 80.0051 324.97C80.0546 325.019 80.1218 325.047 80.1918 325.047H80.5219V326.357H81.8537V325.047H82.1838C82.2538 325.047 82.321 325.019 82.3705 324.97C82.4201 324.92 82.4479 324.853 82.4479 324.783V323.909C82.4479 323.839 82.4201 323.772 82.3705 323.722C82.321 323.673 82.2538 323.645 82.1838 323.645Z" fill="#E6E6E6"/>
<path d="M84.1786 331.645C82.9587 329.861 82.3351 327.736 82.397 325.575C82.3981 325.525 82.3819 325.476 82.3512 325.437C82.3205 325.398 82.2771 325.37 82.2284 325.359V324.981H80.1247V325.354H80.0957C80.0673 325.354 80.0393 325.36 80.0131 325.37C79.9869 325.381 79.9631 325.397 79.9431 325.417C79.9231 325.437 79.9072 325.461 79.8964 325.487C79.8856 325.514 79.88 325.542 79.8801 325.57C79.8801 325.575 79.8803 325.581 79.8807 325.586C80.0749 327.791 79.4799 329.993 78.2017 331.8C78.1278 331.906 78.09 332.032 78.094 332.161L78.3241 339.275C78.3296 339.434 78.3962 339.584 78.51 339.695C78.6238 339.806 78.776 339.868 78.9348 339.87H83.6932C83.8538 339.868 84.0076 339.804 84.1217 339.691C84.2359 339.578 84.3014 339.425 84.3043 339.265L84.3929 332.357C84.3956 332.104 84.3208 331.855 84.1786 331.645V331.645Z" fill="#ECCC68"/>
<path d="M83.4934 334.261H78.9531V336.531H83.4934V334.261Z" fill="white"/>
<path d="M91.4562 323.645H89.4643C89.3943 323.645 89.3271 323.673 89.2775 323.722C89.228 323.772 89.2002 323.839 89.2002 323.909V324.783C89.2002 324.853 89.228 324.92 89.2775 324.97C89.3271 325.019 89.3943 325.047 89.4643 325.047H89.7944V326.357H91.1261V325.047H91.4562C91.5263 325.047 91.5935 325.019 91.643 324.97C91.6925 324.92 91.7203 324.853 91.7203 324.783V323.909C91.7203 323.839 91.6925 323.772 91.643 323.722C91.5935 323.673 91.5263 323.645 91.4562 323.645Z" fill="#E6E6E6"/>
<path d="M93.4511 331.645C92.2312 329.861 91.6075 327.736 91.6695 325.575C91.6706 325.525 91.6544 325.476 91.6237 325.437C91.5929 325.398 91.5496 325.37 91.5009 325.359V324.981H89.3971V325.354H89.3681C89.3398 325.354 89.3117 325.36 89.2855 325.37C89.2594 325.381 89.2356 325.397 89.2156 325.417C89.1956 325.437 89.1797 325.461 89.1689 325.487C89.1581 325.514 89.1525 325.542 89.1525 325.57C89.1525 325.575 89.1528 325.581 89.1532 325.586C89.3473 327.791 88.7523 329.993 87.4742 331.8C87.4002 331.906 87.3624 332.032 87.3665 332.161L87.5965 339.275C87.6021 339.434 87.6687 339.584 87.7825 339.695C87.8963 339.806 88.0484 339.868 88.2073 339.87H92.9657C93.1263 339.868 93.28 339.804 93.3942 339.691C93.5083 339.578 93.5738 339.425 93.5768 339.265L93.6654 332.357C93.668 332.104 93.5933 331.855 93.4511 331.645Z" fill="#ECCC68"/>
<path d="M92.7659 334.261H88.2256V336.531H92.7659V334.261Z" fill="white"/>
<path d="M100.729 323.645H98.7368C98.6667 323.645 98.5995 323.673 98.55 323.722C98.5005 323.772 98.4727 323.839 98.4727 323.909V324.783C98.4727 324.853 98.5005 324.92 98.55 324.97C98.5995 325.019 98.6667 325.047 98.7368 325.047H99.0668V326.357H100.399V325.047H100.729C100.799 325.047 100.866 325.019 100.915 324.97C100.965 324.92 100.993 324.853 100.993 324.783V323.909C100.993 323.839 100.965 323.772 100.915 323.722C100.866 323.673 100.799 323.645 100.729 323.645Z" fill="#E6E6E6"/>
<path d="M102.724 331.645C101.504 329.861 100.88 327.736 100.942 325.575C100.943 325.525 100.927 325.476 100.896 325.437C100.865 325.398 100.822 325.37 100.773 325.359V324.981H98.6696V325.354H98.6406C98.6122 325.354 98.5842 325.36 98.558 325.37C98.5318 325.381 98.5081 325.397 98.488 325.417C98.468 325.437 98.4521 325.461 98.4413 325.487C98.4305 325.514 98.425 325.542 98.425 325.57C98.425 325.575 98.4252 325.581 98.4256 325.586C98.6198 327.791 98.0248 329.993 96.7466 331.8C96.6727 331.906 96.6349 332.032 96.639 332.161L96.869 339.275C96.8745 339.434 96.9411 339.584 97.0549 339.695C97.1687 339.806 97.3209 339.868 97.4797 339.87H102.238C102.399 339.868 102.553 339.804 102.667 339.691C102.781 339.578 102.846 339.425 102.849 339.265L102.938 332.357C102.94 332.104 102.866 331.855 102.724 331.645Z" fill="#ECCC68"/>
<path d="M102.039 334.261H97.499V336.531H102.039V334.261Z" fill="white"/>
<path d="M127.539 306.263H123.34C123.267 306.263 123.194 306.278 123.127 306.306C123.059 306.334 122.998 306.375 122.946 306.426C122.895 306.478 122.854 306.539 122.826 306.607C122.798 306.674 122.783 306.747 122.783 306.82V308.663C122.783 308.81 122.842 308.952 122.946 309.056C123.051 309.161 123.192 309.219 123.34 309.219H124.036V311.981H126.843V309.219H127.539C127.687 309.219 127.829 309.161 127.933 309.056C128.037 308.952 128.096 308.81 128.096 308.663V306.82C128.096 306.747 128.082 306.674 128.054 306.607C128.026 306.539 127.985 306.478 127.933 306.426C127.881 306.375 127.82 306.334 127.752 306.306C127.685 306.278 127.612 306.263 127.539 306.263V306.263Z" fill="#E6E6E6"/>
<path d="M131.745 323.13C129.173 319.367 127.858 314.887 127.989 310.332C127.991 310.227 127.957 310.124 127.892 310.041C127.828 309.958 127.736 309.9 127.634 309.877V309.081H123.199V309.866H123.137C123.078 309.866 123.018 309.878 122.963 309.901C122.908 309.924 122.858 309.958 122.816 310C122.774 310.042 122.74 310.092 122.717 310.148C122.695 310.203 122.683 310.262 122.683 310.322C122.683 310.333 122.683 310.344 122.684 310.355C123.034 315.225 121.854 319.592 119.145 323.456C118.989 323.678 118.909 323.945 118.918 324.216L119.403 339.215C119.414 339.549 119.555 339.866 119.795 340.1C120.034 340.333 120.355 340.465 120.69 340.468H130.722C131.06 340.465 131.384 340.33 131.625 340.092C131.866 339.854 132.004 339.531 132.01 339.193L132.197 324.63C132.202 324.096 132.045 323.572 131.745 323.13Z" fill="#ECCC68"/>
<path d="M130.157 328.112H121.426C121.297 328.112 121.169 328.14 121.051 328.194C120.934 328.248 120.83 328.326 120.745 328.424C120.661 328.523 120.599 328.638 120.564 328.762C120.528 328.886 120.52 329.017 120.54 329.144L121.859 337.72H129.436L131.039 329.173C131.063 329.044 131.058 328.911 131.025 328.783C130.992 328.656 130.931 328.537 130.847 328.436C130.763 328.334 130.658 328.253 130.538 328.197C130.419 328.141 130.289 328.112 130.157 328.112V328.112Z" fill="white"/>
<path d="M129.831 251.333H104.799C106.549 241.872 106.146 230.449 104.799 218.163H129.831C128.52 230.449 128.128 241.872 129.831 251.333Z" fill="#ECCC68"/>
<path d="M117.466 239.874C120.798 239.874 123.498 237.174 123.498 233.843C123.498 230.513 120.798 227.812 117.466 227.812C114.135 227.812 111.435 230.513 111.435 233.843C111.435 237.174 114.135 239.874 117.466 239.874Z" fill="white"/>
<path d="M106.91 295.358H81.8779C83.628 285.897 83.2254 274.474 81.8779 262.188H106.91C105.599 274.474 105.207 285.897 106.91 295.358Z" fill="#ECCC68"/>
<path d="M94.5456 283.9C97.8769 283.9 100.577 281.199 100.577 277.869C100.577 274.538 97.8769 271.838 94.5456 271.838C91.2142 271.838 88.5137 274.538 88.5137 277.869C88.5137 281.199 91.2142 283.9 94.5456 283.9Z" fill="white"/>
<path d="M144.007 253.444H118.975C120.725 243.983 120.322 232.559 118.975 220.274H144.007C142.695 232.559 142.303 243.983 144.007 253.444Z" fill="#E6E6E6"/>
<path d="M131.641 241.985C134.973 241.985 137.673 239.285 137.673 235.954C137.673 232.623 134.973 229.923 131.641 229.923C128.31 229.923 125.609 232.623 125.609 235.954C125.609 239.285 128.31 241.985 131.641 241.985Z" fill="white"/>
<path d="M144.007 251.936H118.975C120.725 242.475 120.322 231.052 118.975 218.766H144.007C142.695 231.052 142.303 242.475 144.007 251.936Z" fill="#E6E6E6"/>
<path d="M131.641 240.477C134.973 240.477 137.673 237.777 137.673 234.446C137.673 231.116 134.973 228.416 131.641 228.416C128.31 228.416 125.609 231.116 125.609 234.446C125.609 237.777 128.31 240.477 131.641 240.477Z" fill="white"/>
<path d="M144.007 253.444H118.975C120.725 243.983 120.322 232.559 118.975 220.274H144.007C142.695 232.559 142.303 243.983 144.007 253.444Z" fill="#ECCC68"/>
<path d="M131.641 241.985C134.973 241.985 137.673 239.285 137.673 235.954C137.673 232.623 134.973 229.923 131.641 229.923C128.31 229.923 125.609 232.623 125.609 235.954C125.609 239.285 128.31 241.985 131.641 241.985Z" fill="white"/>
<path d="M149.737 249.523H67.7031V258.57H149.737V249.523Z" fill="#084C61"/>
<path d="M149.737 294.453H67.7031V303.499H149.737V294.453Z" fill="#084C61"/>
<path d="M149.737 339.383H67.7031V348.43H149.737V339.383Z" fill="#084C61"/>
<path d="M292.438 376.084L272.001 361.631C278.894 354.918 285.163 345.359 291.158 334.551L311.595 349.003C303.429 358.276 296.511 367.377 292.438 376.084Z" fill="#FD9644"/>
<path d="M292.444 360.696C295.775 360.696 298.476 357.996 298.476 354.666C298.476 351.335 295.775 348.635 292.444 348.635C289.113 348.635 286.412 351.335 286.412 354.666C286.412 357.996 289.113 360.696 292.444 360.696Z" fill="white"/>
<path d="M193.851 310.134H191.608C191.529 310.134 191.453 310.165 191.398 310.221C191.342 310.277 191.311 310.352 191.311 310.431V311.416C191.311 311.455 191.318 311.493 191.333 311.529C191.348 311.566 191.37 311.598 191.398 311.626C191.425 311.654 191.458 311.675 191.494 311.69C191.53 311.705 191.569 311.713 191.608 311.713H191.98V313.188H193.48V311.713H193.851C193.93 311.713 194.006 311.682 194.062 311.626C194.117 311.57 194.149 311.495 194.149 311.416V310.431C194.149 310.352 194.117 310.277 194.062 310.221C194.006 310.165 193.93 310.134 193.851 310.134V310.134Z" fill="#E6E6E6"/>
<path d="M196.099 319.144C194.725 317.134 194.023 314.74 194.092 312.307C194.094 312.251 194.076 312.196 194.041 312.152C194.006 312.107 193.957 312.076 193.903 312.064V311.639H191.533V312.058H191.501C191.469 312.058 191.437 312.065 191.408 312.077C191.378 312.089 191.351 312.107 191.329 312.13C191.306 312.152 191.288 312.179 191.276 312.209C191.264 312.238 191.258 312.27 191.258 312.302C191.258 312.307 191.258 312.313 191.259 312.319C191.477 314.802 190.807 317.283 189.368 319.318C189.284 319.437 189.242 319.579 189.246 319.724L189.505 327.737C189.512 327.915 189.587 328.085 189.715 328.209C189.843 328.334 190.014 328.405 190.193 328.406H195.552C195.733 328.405 195.906 328.332 196.035 328.205C196.163 328.078 196.237 327.906 196.24 327.725L196.34 319.945C196.343 319.66 196.259 319.38 196.099 319.144V319.144Z" fill="#FD9644"/>
<path opacity="0.2" d="M193.384 310.455C193.384 310.625 193.316 310.788 193.196 310.908C193.076 311.029 192.912 311.096 192.742 311.096C192.572 311.096 192.409 311.029 192.289 310.908C192.168 310.788 192.101 310.625 192.101 310.455" fill="black"/>
<path d="M195.055 320.688H190.531V323.703H195.055V320.688Z" fill="white"/>
<path d="M264.844 341.435H260.645C260.497 341.435 260.355 341.494 260.251 341.598C260.147 341.702 260.088 341.844 260.088 341.992V343.835C260.088 343.982 260.147 344.124 260.251 344.228C260.355 344.333 260.497 344.391 260.645 344.391H261.341V347.153H264.148V344.391H264.844C264.992 344.391 265.133 344.333 265.238 344.228C265.342 344.124 265.401 343.982 265.401 343.835V341.992C265.401 341.844 265.342 341.702 265.238 341.598C265.133 341.494 264.992 341.435 264.844 341.435V341.435Z" fill="#E6E6E6"/>
<path d="M269.05 358.301C266.478 354.538 265.163 350.059 265.294 345.503C265.296 345.398 265.262 345.295 265.197 345.212C265.132 345.13 265.041 345.072 264.938 345.049V344.252H260.503V345.038H260.442C260.382 345.038 260.323 345.05 260.268 345.073C260.213 345.095 260.163 345.129 260.12 345.171C260.078 345.214 260.045 345.264 260.022 345.319C259.999 345.374 259.988 345.434 259.988 345.493C259.988 345.504 259.988 345.515 259.989 345.526C260.338 350.396 259.158 354.763 256.449 358.628C256.293 358.85 256.214 359.116 256.222 359.388L256.707 374.386C256.719 374.721 256.859 375.038 257.099 375.271C257.339 375.505 257.66 375.637 257.995 375.639H268.026C268.365 375.637 268.689 375.502 268.93 375.263C269.17 375.025 269.308 374.703 269.315 374.364L269.501 359.802C269.507 359.267 269.349 358.744 269.05 358.301V358.301Z" fill="#FD9644"/>
<path opacity="0.2" d="M263.969 342.036C263.969 342.354 263.842 342.66 263.617 342.885C263.392 343.11 263.086 343.237 262.768 343.237C262.449 343.237 262.143 343.11 261.918 342.885C261.693 342.66 261.566 342.354 261.566 342.036" fill="black"/>
<path d="M267.462 363.283H258.73C258.601 363.283 258.473 363.311 258.356 363.365C258.239 363.419 258.134 363.498 258.05 363.596C257.966 363.694 257.904 363.809 257.868 363.933C257.833 364.058 257.825 364.188 257.844 364.316L259.164 372.891H266.741L268.343 364.345C268.367 364.215 268.363 364.082 268.33 363.955C268.297 363.827 268.236 363.708 268.152 363.607C268.068 363.506 267.962 363.424 267.843 363.368C267.724 363.312 267.594 363.283 267.462 363.283V363.283Z" fill="white"/>
<path d="M252.862 376.06H227.83C229.58 366.599 229.178 355.176 227.83 342.89H252.862C251.551 355.176 251.159 366.599 252.862 376.06Z" fill="#FD9644"/>
<path d="M240.497 364.601C243.828 364.601 246.529 361.901 246.529 358.57C246.529 355.24 243.828 352.54 240.497 352.54C237.165 352.54 234.465 355.24 234.465 358.57C234.465 361.901 237.165 364.601 240.497 364.601Z" fill="white"/>
<path d="M202.047 295.508C202.234 295.042 202.308 294.539 202.262 294.039C202.216 293.539 202.051 293.057 201.783 292.633C201.514 292.209 201.148 291.855 200.716 291.6C200.283 291.345 199.796 291.197 199.295 291.167L190.57 290.646L189.285 294.918L198.267 297.384C199.018 297.59 199.818 297.513 200.515 297.167C201.212 296.821 201.758 296.23 202.047 295.508V295.508Z" fill="#FFB8B8"/>
<path d="M146.132 387.618H151.241L163.912 330.337L177.039 348.032L184.703 386.341H189.556L188.534 345.223L171.42 301.295H154.561C149.954 309.632 146.34 318.225 150.474 327.09L146.132 387.618Z" fill="#084C61"/>
<path d="M181.57 391.097C181.514 391.278 181.497 391.468 181.52 391.656C181.543 391.844 181.605 392.025 181.704 392.187C181.802 392.349 181.934 392.488 182.09 392.595C182.246 392.702 182.424 392.774 182.61 392.807L195.111 395.025C195.605 395.116 196.115 395.022 196.545 394.763C196.975 394.503 197.295 394.095 197.444 393.616V393.616C197.59 393.158 197.57 392.663 197.387 392.219C197.204 391.774 196.871 391.409 196.445 391.186C193.696 389.775 191.33 387.718 189.551 385.193C188.177 386.472 186.641 386.352 185.01 385.409L183.281 385.625L181.57 391.097Z" fill="#2F2E41"/>
<path d="M143.767 391.097C143.71 391.278 143.693 391.468 143.716 391.656C143.739 391.844 143.802 392.025 143.9 392.187C143.998 392.349 144.13 392.488 144.286 392.595C144.443 392.702 144.62 392.774 144.806 392.807L157.307 395.025C157.801 395.116 158.311 395.022 158.741 394.763C159.171 394.503 159.491 394.095 159.641 393.616V393.616C159.786 393.158 159.766 392.663 159.583 392.219C159.4 391.774 159.067 391.409 158.641 391.186C155.892 389.775 153.527 387.718 151.747 385.193C150.373 386.472 148.837 386.352 147.207 385.409L145.477 385.625L143.767 391.097Z" fill="#2F2E41"/>
<path fill-rule="evenodd" clip-rule="evenodd" d="M166.95 258.518C166.95 262.467 163.748 265.669 159.798 265.669C159.323 265.669 158.86 265.622 158.411 265.534L156.094 271.16L150.475 271.67L152.929 260.517C152.744 259.883 152.646 259.212 152.646 258.518C152.646 254.568 155.848 251.367 159.798 251.367C163.748 251.367 166.95 254.568 166.95 258.518Z" fill="#FFB8B8"/>
<path d="M196.253 314.81C196.608 314.455 196.874 314.021 197.028 313.543C197.182 313.066 197.221 312.558 197.141 312.063C197.06 311.567 196.864 311.098 196.566 310.693C196.269 310.289 195.88 309.961 195.431 309.736L187.614 305.826L184.752 309.248L192.039 315.048C192.648 315.533 193.414 315.776 194.192 315.733C194.969 315.689 195.702 315.36 196.253 314.81V314.81Z" fill="#FFB8B8"/>
<path fill-rule="evenodd" clip-rule="evenodd" d="M153.412 303.211L172.059 302.7L171.89 302.17L186.874 312.916L189.939 305.51L173.338 295.044L172.686 293.03L192.679 297.456L192.583 289.441L173.202 286.349L168.947 281.47L166.347 273.432C165.984 272.307 165.225 271.352 164.211 270.745C163.71 270.444 163.164 270.239 162.6 270.133C162.311 269.794 162.015 269.455 161.713 269.116L157.882 266.563L151.751 266.052C149.097 268.891 147.645 272.648 147.699 276.534C147.82 284.856 149.294 293.915 153.412 303.211Z" fill="#ECCC68"/>
<path fill-rule="evenodd" clip-rule="evenodd" d="M156.9 241.511C157.777 242.454 158.264 243.694 158.265 244.982C158.264 245.752 158.09 246.506 157.762 247.189C157.668 247.189 157.575 247.19 157.481 247.193C157.493 247.053 157.499 246.912 157.499 246.769C157.499 243.948 155.211 241.662 152.39 241.662C149.568 241.662 147.281 243.948 147.281 246.769C147.281 248.559 148.202 250.133 149.595 251.046C148.622 252.332 148.047 253.903 148.047 255.708C148.047 258.491 149.855 262.8 152.134 264.647C153.668 265.89 155.695 265.837 156.477 264.136C157.278 262.391 160.042 258.289 164.906 255.708C170.695 252.637 164.314 247.617 158.517 247.214C158.852 246.525 159.031 245.763 159.031 244.982C159.031 243.627 158.493 242.328 157.535 241.37C156.577 240.412 155.277 239.874 153.922 239.874C153.798 239.874 153.677 239.883 153.556 239.892L153.539 239.893C154.823 239.989 156.024 240.567 156.9 241.511Z" fill="#2F2E41"/>
<path d="M159.925 261.072C160.56 261.072 161.074 260.385 161.074 259.539C161.074 258.693 160.56 258.007 159.925 258.007C159.29 258.007 158.775 258.693 158.775 259.539C158.775 260.385 159.29 261.072 159.925 261.072Z" fill="#FFB8B8"/>
<path fill-rule="evenodd" clip-rule="evenodd" d="M199.176 298.654C198.186 299.131 196.887 299.42 195.463 299.42C192.363 299.42 189.85 298.049 189.85 296.358C189.85 294.668 192.363 293.297 195.463 293.297C197.729 293.297 199.681 294.029 200.568 295.083H211.2L214.168 309.114H316.033C316.563 309.114 317.086 309.229 317.568 309.451C318.049 309.672 318.476 309.996 318.821 310.398C319.165 310.801 319.418 311.273 319.562 311.783C319.707 312.293 319.739 312.828 319.657 313.351L306.845 373.471C306.713 374.336 306.274 375.124 305.609 375.693C305.325 375.935 305.009 376.131 304.672 376.275V378.251H297.296C299.849 379.491 301.609 382.11 301.609 385.139C301.609 389.366 298.182 392.792 293.955 392.792C289.727 392.792 286.3 389.366 286.3 385.139C286.3 382.11 288.06 379.491 290.614 378.251H240.14C242.693 379.491 244.454 382.11 244.454 385.139C244.454 389.366 241.026 392.792 236.799 392.792C232.571 392.792 229.144 389.366 229.144 385.139C229.144 382.11 230.904 379.491 233.458 378.251H225.145L208.304 298.654H199.176ZM304.672 375.121V374.679H290.754L292.662 360.14L308.667 360.03L305.836 373.312C305.741 373.937 305.424 374.506 304.944 374.916C304.858 374.991 304.766 375.059 304.672 375.121ZM308.884 359.008L292.796 359.118L296.789 328.695L315.335 328.74L308.884 359.008ZM266.916 359.295L291.766 359.125L295.76 328.693L266.916 328.623V359.295ZM291.632 360.147L266.916 360.316V374.679H289.725L291.632 360.147ZM265.895 374.679V360.323L239.791 360.501L241.693 374.679H265.895ZM239.654 359.481L265.895 359.302V328.62L235.504 328.547L239.654 359.481ZM234.475 328.544L238.626 359.488L224.846 359.583L218.271 328.505L234.475 328.544ZM228.04 374.679L225.062 360.602L238.763 360.508L240.664 374.679H228.04ZM315.552 327.72L318.648 313.193C318.708 312.815 318.685 312.429 318.58 312.061C318.476 311.693 318.294 311.352 318.045 311.061C317.797 310.771 317.488 310.537 317.141 310.377C316.793 310.217 316.415 310.135 316.033 310.135H299.225L296.923 327.675L315.552 327.72ZM295.894 327.673L298.195 310.135H266.916V327.602L295.894 327.673ZM265.895 327.6L235.367 327.526L233.034 310.135H265.895V327.6ZM234.338 327.523L232.005 310.135H214.384L218.055 327.484L234.338 327.523Z" fill="#084C61"/>
</g>
<defs>
<clipPath id="clip0">
<rect x="54" y="106" width="297" height="289" fill="white"/>
</clipPath>
</defs>
</svg>
